<svg version="1.1" xmlns="http://www.w3.org/2000/svg" style="display: block;" viewBox="0 0 2048 630" width="832" height="256" preserveAspectRatio="none">
<path transform="translate(0,0)" fill="rgb(69,115,110)" d="M 1015.47 71.4169 C 1019.09 71.1402 1022.72 70.9792 1026.35 70.9343 C 1112.13 69.4364 1209.15 92.7657 1283.44 135.927 C 1313.91 153.626 1345.26 179.314 1371.54 202.942 C 1391.2 220.623 1408.07 243.154 1427.4 261.807 C 1407.58 267.621 1389.49 277.883 1370.07 284.895 C 1362.83 277.143 1356.15 268.896 1348.82 261.359 C 1315.42 226.966 1264.6 189.476 1220.26 170.164 C 1120.86 126.543 1009.04 120.306 905.402 152.602 C 893.61 156.264 879.301 162.218 867.643 166.787 C 846.988 175.715 827.019 186.151 807.897 198.01 C 737.63 241.247 681.344 303.854 645.802 378.309 C 638.092 394.649 631.27 409.171 627.104 426.741 C 606.374 426.532 584.881 427.06 564.1 427.305 C 566.953 411.386 574.65 397.603 580.163 382.916 C 630.826 247.93 742.624 142.864 878.773 96.8525 C 922.274 82.1515 968.998 75.1851 1015.47 71.4169 z"/>
<path transform="translate(0,0)" fill="rgb(217,147,67)" d="M 1566.35 237.933 C 1550.85 225.291 1537.98 219.342 1518.53 215.315 C 1511.83 213.926 1504.15 212.744 1497.87 210.194 C 1495.8 207.837 1496.39 208.658 1496.44 204.822 C 1499.08 202.313 1513.25 201.955 1518.46 201.15 C 1545.88 196.919 1572.7 190.677 1600.11 185.975 C 1615.71 183.298 1636.64 182.691 1650.9 177.751 C 1674.63 169.529 1696.78 148.762 1718.15 136.036 C 1752.88 115.347 1787.8 91.9518 1823.85 74.0951 C 1810.04 96.3667 1769.82 127.834 1749.84 146.584 C 1732.68 162.678 1714.57 179.129 1696.83 194.748 C 1686.31 204.007 1673.65 213.055 1664.17 222.975 C 1659.66 227.691 1655.42 239.557 1652.33 245.619 C 1641.24 267.339 1631.83 300.031 1619.53 320.33 C 1618.52 318.403 1617.49 316.153 1616.71 314.115 C 1609.86 296.178 1600.44 280.875 1590.51 264.475 C 1582.89 268.027 1570.08 277.62 1562.96 282.707 C 1547.01 294.079 1531.14 305.551 1515.34 317.123 C 1494.2 332.348 1465.73 350.279 1443.24 364.36 C 1396.62 393.713 1348.58 420.733 1299.28 445.32 C 1275.95 456.755 1248.79 467.006 1226.94 478.139 C 1214.69 482.897 1203.28 485.345 1191.05 489.34 C 1162.79 498.566 1127.85 508.527 1098.52 513.567 C 1046.3 517.771 985.704 515.487 932.94 515.463 L 871.084 515.973 C 862.951 516.039 849.506 516.595 842.046 515.989 C 844.878 513.918 894.172 501.864 901.044 500.325 C 923.698 495.251 945.316 485.857 967.534 480.677 C 1006.03 472.982 1039.12 464.131 1076.45 453.126 C 1122.14 439.654 1168.32 428.08 1212.89 410.697 C 1235.17 402.009 1256.85 392.042 1278.68 382.345 C 1330.04 361.673 1381.97 341.344 1431.46 316.434 C 1459.99 302.077 1487.04 284.956 1514.26 268.299 C 1531.8 257.565 1550.22 250.514 1566.35 237.933 z"/>
<path transform="translate(0,0)" fill="rgb(69,115,110)" d="M 1226.94 478.139 C 1298.21 478.53 1369.48 478.076 1440.74 476.777 C 1463.33 476.391 1485.83 475.309 1508.45 475.158 C 1643.09 473.595 1777.75 475.858 1912.26 481.945 C 1932.58 482.771 2006.77 483.745 2021.14 491.196 L 2022.07 492.81 C 2019.07 496.958 2014.77 497.449 2009.55 498.177 C 1988.73 501.079 1967.04 502.017 1946.02 503.577 C 1890.87 507.331 1835.65 510.026 1780.39 511.66 C 1750.29 512.519 1719.23 511.916 1688.97 512.352 C 1568.64 514.092 1448.3 514.945 1327.96 514.914 L 1167.04 516.028 C 1152.68 516.003 1109.66 517.574 1098.52 513.567 C 1127.85 508.527 1162.79 498.566 1191.05 489.34 C 1203.28 485.345 1214.69 482.897 1226.94 478.139 z"/>
<path transform="translate(0,0)" fill="rgb(69,115,110)" d="M 842.046 515.989 C 835.433 517.044 806.077 514.978 797.648 514.979 C 765.964 514.983 734.158 514.943 702.479 514.804 C 583.572 514.96 464.665 514.134 345.772 512.324 C 291.388 511.457 237.857 511.982 183.5 507.62 C 166.458 506.426 149.53 507.303 132.486 505.562 C 104.624 502.716 76.1401 501.84 48.357 498.853 C 46.0896 498.61 44.4489 497.731 43.3259 495.838 C 52.2592 483.477 209.965 482.651 235.488 481.907 C 262.11 481.132 298.805 478.096 325.514 477.542 C 406.669 476.087 487.838 475.462 569.006 475.667 L 735.628 477.433 L 874.973 477.437 C 886.431 477.43 960.196 476.193 967.534 480.677 C 945.316 485.857 923.698 495.251 901.044 500.325 C 894.172 501.864 844.878 513.918 842.046 515.989 z"/>
<path transform="translate(0,0)" fill="rgb(69,115,110)" d="M 1026.14 234.46 C 1097.35 231.794 1167.22 251.767 1224.44 295.163 C 1238.94 306.158 1251.84 315.63 1262.94 330.237 C 1245.78 336.727 1231.54 341.475 1215.24 350.143 C 1197.68 333.154 1160.69 311.017 1138.21 301.533 C 1070.58 273 996.274 275.347 928.752 302.526 C 927.9 302.864 927.054 303.218 926.214 303.586 C 878.951 324.337 836.909 357.346 810.36 401.835 C 805.419 410.115 800.296 417.647 796.747 426.711 C 782.936 423.902 759.368 421.885 745.039 420.651 C 756.235 390.096 779.951 357.381 802.055 333.94 C 860.445 272.151 941.151 236.323 1026.14 234.46 z"/>
</svg>
